if (_typeface_js && _typeface_js.loadFace) _typeface_js.loadFace({"glyphs":{"0":{"ha":792,"x_min":0,"x_max":0,"o":"m 394 974 b 54 624 207 974 54 817 l 54 351 b 394 0 54 158 207 0 b 736 351 583 0 736 158 l 736 624 b 394 974 736 817 583 974 z m 394 128 b 178 351 276 128 178 228 l 178 624 b 394 846 178 746 276 846 b 611 624 517 846 611 746 l 611 351 b 394 128 611 228 517 128 z "},"1":{"ha":381,"x_min":0,"x_max":0,"o":"m 57 965 l 57 829 l 188 829 l 188 3 l 314 3 l 314 829 l 314 965 l 188 965 z "},"2":{"ha":753,"x_min":0,"x_max":0,"o":"m 611 469 b 657 550 632 496 647 521 l 663 564 b 679 667 674 597 679 632 b 379 975 679 838 544 975 b 79 667 213 975 79 838 l 79 660 l 197 660 l 197 667 b 379 853 197 771 278 853 b 560 667 479 853 560 771 b 531 564 560 629 550 594 l 525 554 l 69 121 l 69 -1 l 679 -1 l 679 121 l 243 121 z "},"3":{"ha":704,"x_min":0,"x_max":0,"o":"m 522 536 b 599 719 568 585 599 649 b 353 971 599 858 489 971 b 107 719 218 971 107 858 l 224 719 b 353 851 224 792 282 851 b 481 719 425 851 481 792 b 365 588 481 651 431 594 l 353 588 l 353 468 b 529 296 449 468 529 390 b 353 124 529 200 449 124 b 176 288 257 124 181 194 l 53 288 b 353 3 57 128 190 3 b 653 296 518 3 653 133 b 522 536 653 396 601 485 z "},"4":{"ha":706,"x_min":0,"x_max":0,"o":"m 514 518 l 193 518 l 193 969 l 65 969 l 65 518 l 65 518 l 65 390 l 514 390 l 514 -1 l 642 -1 l 642 969 l 514 969 z "},"5":{"ha":754,"x_min":0,"x_max":0,"o":"m 378 679 b 243 649 329 679 286 669 l 243 844 l 615 844 l 615 969 l 243 969 l 132 969 l 119 969 l 119 549 l 119 501 l 240 501 l 243 501 l 243 504 b 378 554 281 536 328 554 b 589 339 494 554 589 458 b 378 124 589 219 494 124 b 168 339 263 124 168 219 l 49 339 b 378 0 49 154 196 0 b 708 339 560 0 708 154 b 378 679 708 526 560 679 z "},"6":{"ha":767,"x_min":0,"x_max":0,"o":"m 72 468 l 74 468 b 51 346 58 429 51 389 b 386 1 51 156 201 1 b 722 346 571 1 722 156 b 386 689 722 535 571 689 b 338 685 369 689 353 689 l 506 974 l 365 976 l 293 850 l 128 564 b 76 474 107 539 89 508 z m 386 564 b 600 346 504 564 600 467 b 386 126 600 224 504 126 b 174 346 269 126 174 224 b 210 468 174 390 188 433 l 211 468 l 215 476 b 386 564 254 531 315 564 z "},"7":{"ha":881,"x_min":0,"x_max":0,"o":"m 660 975 l 83 975 l 83 849 l 586 849 l 83 0 l 238 0 l 822 975 l 683 975 z "},"8":{"ha":728,"x_min":0,"x_max":0,"o":"m 667 292 l 667 293 b 536 538 667 393 615 483 b 608 678 574 575 599 624 l 608 685 b 610 718 610 696 610 708 b 399 969 610 846 519 951 l 399 971 l 390 971 b 371 974 383 971 378 974 l 365 974 l 361 974 b 347 971 356 974 351 971 b 122 763 232 964 144 878 l 122 756 l 122 751 b 119 738 121 747 119 743 l 119 724 l 119 718 b 194 538 115 647 146 586 b 67 336 126 489 79 421 b 63 286 65 318 63 303 b 365 0 67 126 201 0 b 665 258 521 0 647 114 b 667 278 665 268 665 274 l 667 279 z m 347 590 b 236 721 281 600 236 656 l 236 728 b 238 738 236 732 238 733 l 238 739 b 356 853 247 804 296 849 l 358 853 l 368 853 l 375 853 l 381 853 b 494 718 446 843 494 789 b 492 701 494 714 492 708 b 378 588 482 639 433 594 l 351 588 b 347 590 350 588 349 589 z m 365 121 b 340 124 353 121 344 122 b 188 318 244 139 176 225 b 368 467 203 406 278 471 l 378 467 l 388 467 b 392 464 388 465 389 464 b 543 279 485 449 547 369 b 365 121 536 192 458 121 z "},"9":{"ha":800,"x_min":0,"x_max":0,"o":"m 707 506 l 706 506 b 728 629 721 544 728 586 b 393 974 728 819 578 974 b 58 629 208 974 58 819 b 393 285 58 439 208 285 b 442 288 410 285 425 286 l 274 0 l 415 -1 l 488 124 l 653 408 b 703 500 674 438 692 467 z m 393 410 b 179 629 275 410 179 507 b 393 847 179 747 275 847 b 606 629 511 847 606 747 b 569 506 606 583 593 543 l 568 506 l 563 499 b 393 410 525 444 464 410 z "}," ":{"ha":390,"x_min":0,"x_max":0,"o":""},"A":{"ha":953,"x_min":0,"x_max":0,"o":"m 679 153 l 744 0 l 896 0 l 474 976 l 53 0 l 200 0 l 268 153 z m 621 279 l 326 279 l 474 618 z "},"B":{"ha":757,"x_min":0,"x_max":0,"o":"m 582 504 b 656 693 628 553 656 619 b 381 972 656 846 533 971 l 50 971 l 50 1 l 440 1 l 440 1 b 442 1 440 1 440 1 b 711 272 592 3 711 124 b 582 504 711 369 660 456 z m 378 843 b 526 693 460 843 526 776 b 378 543 526 611 460 543 l 183 543 l 183 843 l 378 843 z m 443 131 l 443 124 l 443 131 l 183 131 l 183 414 l 440 414 b 585 272 519 414 585 353 b 443 131 585 192 524 131 z "},"C":{"ha":913,"x_min":0,"x_max":0,"o":"m 768 218 b 546 139 707 168 631 139 b 199 486 353 139 199 293 b 546 832 199 679 353 832 b 764 757 631 832 703 807 l 825 885 b 546 972 747 940 651 972 b 60 486 279 972 60 754 b 546 0 60 218 279 0 b 825 89 651 0 747 33 z "},"D":{"ha":899,"x_min":0,"x_max":0,"o":"m 217 139 l 217 833 l 333 833 b 681 486 526 833 681 675 b 333 139 681 293 526 139 z m 819 486 b 340 969 819 747 606 965 l 81 971 l 81 0 l 340 0 b 819 486 606 0 819 221 z "},"E":{"ha":722,"x_min":0,"x_max":0,"o":"m 204 129 l 204 414 l 553 414 l 553 543 l 204 543 l 204 842 l 643 842 l 643 972 l 71 972 l 71 0 l 650 0 l 650 129 z "},"F":{"ha":717,"x_min":0,"x_max":0,"o":"m 650 840 l 650 974 l 78 974 l 78 0 l 211 0 l 211 413 l 564 413 l 564 536 l 211 536 l 211 840 z "},"G":{"ha":1000,"x_min":0,"x_max":0,"o":"m 618 543 l 618 419 l 778 419 l 778 222 b 569 136 731 175 639 136 b 224 494 374 136 224 299 b 569 839 224 678 374 839 b 790 764 656 839 729 814 l 839 886 b 569 974 765 951 669 974 b 76 494 297 974 76 765 b 569 1 76 222 297 1 b 778 50 642 1 717 24 l 778 1 l 914 1 l 914 543 z "},"H":{"ha":850,"x_min":0,"x_max":0,"o":"m 644 972 l 644 529 l 201 529 l 201 972 l 67 972 l 67 1 l 201 1 l 201 407 l 644 407 l 644 1 l 779 1 l 779 972 z "},"I":{"ha":238,"x_min":0,"x_max":0,"o":"m 189 972 l 54 972 l 54 -1 l 189 -1 z "},"J":{"ha":751,"x_min":0,"x_max":0,"o":"m 535 971 l 535 340 b 317 133 535 218 438 133 b 121 243 228 133 171 182 l 49 133 b 317 0 110 44 206 0 l 328 0 b 668 315 511 0 657 146 l 668 971 z "},"K":{"ha":824,"x_min":0,"x_max":0,"o":"m 767 971 l 597 971 l 211 267 l 211 971 l 76 971 l 76 0 l 211 0 l 368 267 l 597 0 l 756 0 l 440 401 z "},"L":{"ha":667,"x_min":0,"x_max":0,"o":"m 196 972 l 64 972 l 64 0 l 604 0 l 604 132 l 196 132 z "},"M":{"ha":999,"x_min":0,"x_max":0,"o":"m 768 972 l 492 342 l 226 972 l 67 972 l 67 1 l 200 1 l 200 669 l 492 0 l 793 669 l 793 1 l 926 1 l 926 972 z "},"N":{"ha":832,"x_min":0,"x_max":0,"o":"m 646 972 l 646 219 l 218 972 l 64 972 l 64 0 l 194 0 l 194 735 l 621 0 l 776 0 l 776 972 z "},"O":{"ha":1056,"x_min":0,"x_max":0,"o":"m 519 974 b 58 489 264 974 58 756 b 519 1 58 221 264 1 b 993 489 789 1 993 221 b 519 974 993 756 789 974 z m 519 135 b 192 489 338 135 192 293 b 519 839 192 682 338 839 b 860 489 714 839 860 682 b 519 135 860 293 714 135 z "},"P":{"ha":769,"x_min":0,"x_max":0,"o":"m 542 339 b 700 629 638 399 700 507 b 360 969 700 811 554 969 l 69 969 l 69 -1 l 203 -1 l 203 278 l 360 278 b 542 339 408 278 482 301 z m 203 836 l 360 836 b 565 629 469 836 565 740 b 360 413 565 507 469 413 l 203 413 z "},"Q":{"ha":1101,"x_min":0,"x_max":0,"o":"m 1022 488 b 549 972 1022 754 817 972 b 76 488 294 972 76 754 b 549 3 76 221 294 3 b 804 76 644 3 731 28 l 913 -46 l 1010 39 l 900 172 b 1022 488 974 261 1022 365 z m 549 149 b 210 488 365 149 210 293 b 549 839 210 682 365 839 b 889 488 743 839 889 682 b 817 268 889 400 865 328 l 707 403 l 599 318 l 707 183 b 549 149 669 160 610 149 z "},"R":{"ha":875,"x_min":0,"x_max":0,"o":"m 715 135 l 603 374 b 749 646 694 435 749 536 b 431 972 749 821 607 967 l 369 972 l 369 972 l 63 972 l 63 840 l 150 840 l 150 132 l 63 132 l 63 0 l 372 0 l 372 132 l 282 132 l 282 318 l 428 318 l 431 319 l 431 319 b 469 322 444 319 457 321 l 633 4 l 635 1 l 803 3 l 803 135 l 715 135 z m 422 450 l 282 450 l 282 840 l 422 840 b 618 646 529 840 618 753 b 422 450 618 538 529 450 z "},"S":{"ha":764,"x_min":0,"x_max":0,"o":"m 399 3 b 692 288 560 7 692 125 b 401 568 692 451 567 546 b 333 575 392 569 368 571 b 199 700 250 586 199 626 b 333 843 199 776 260 843 l 354 843 b 542 746 436 839 488 806 l 604 861 b 354 968 553 926 450 968 l 333 968 b 72 700 190 968 72 846 b 333 447 72 554 196 474 b 399 438 360 443 378 443 b 574 288 499 422 574 383 b 399 121 574 192 494 121 l 363 121 b 125 239 251 128 168 176 l 69 144 l 69 142 b 361 3 129 60 240 3 l 399 3 z "},"T":{"ha":858,"x_min":0,"x_max":0,"o":"m 42 974 l 42 728 l 175 728 l 175 846 l 363 846 l 363 133 l 275 133 l 275 -1 l 589 -1 l 589 133 l 496 133 l 496 846 l 689 846 l 689 728 l 822 728 l 822 974 z "},"U":{"ha":844,"x_min":0,"x_max":0,"o":"m 632 974 l 632 349 b 418 135 632 231 536 135 b 204 349 300 135 204 231 l 204 504 l 204 974 l 71 974 l 71 419 l 71 342 b 128 157 71 239 128 157 b 418 1 190 63 296 1 b 767 342 610 1 763 153 l 767 504 l 767 974 z "},"V":{"ha":964,"x_min":0,"x_max":0,"o":"m 211 975 l 58 975 l 475 0 l 907 975 l 754 975 l 475 354 z "},"W":{"ha":1457,"x_min":0,"x_max":0,"o":"m 1399 972 l 1247 972 l 981 353 l 728 972 l 463 353 l 197 972 l 58 972 l 463 -1 l 728 631 l 981 -1 z "},"X":{"ha":857,"x_min":0,"x_max":0,"o":"m 803 0 l 521 488 l 790 976 l 624 976 l 443 629 l 251 976 l 83 976 l 353 488 l 71 0 l 238 0 l 443 346 l 649 0 z "},"Y":{"ha":901,"x_min":0,"x_max":0,"o":"m 514 417 l 831 975 l 679 975 l 438 557 l 211 975 l 58 975 l 374 417 l 374 0 l 514 0 z "},"Z":{"ha":844,"x_min":0,"x_max":0,"o":"m 776 969 l 58 969 l 58 843 l 536 843 l 58 -1 l 776 -1 l 776 125 l 299 125 z "},"a":{"ha":783,"x_min":0,"x_max":0,"o":"m 600 696 l 600 611 b 389 689 543 660 471 689 b 56 346 206 689 56 535 b 389 0 56 153 206 0 b 600 78 471 0 543 29 l 600 0 l 731 0 l 731 696 z m 389 126 b 176 346 272 126 176 225 b 389 563 176 464 272 563 b 600 374 496 563 585 481 l 600 315 b 389 126 585 208 496 126 z "},"b":{"ha":781,"x_min":0,"x_max":0,"o":"m 46 1042 l 46 1 l 176 1 l 176 81 b 390 1 236 32 307 1 b 731 351 579 1 731 157 b 390 700 731 546 579 700 b 176 621 307 700 236 669 l 176 1042 z m 176 378 b 390 572 192 488 281 572 b 607 351 508 572 607 474 b 390 129 607 228 508 129 b 176 324 281 129 192 214 z "},"c":{"ha":643,"x_min":0,"x_max":0,"o":"m 525 181 b 388 131 486 149 436 131 b 169 349 267 131 169 228 b 388 565 169 467 267 565 b 521 518 436 565 483 550 l 540 504 l 599 624 l 585 631 b 388 693 525 672 458 693 b 40 349 194 693 40 540 b 388 1 40 156 194 1 b 585 67 458 1 525 24 l 599 72 l 540 196 z "},"d":{"ha":771,"x_min":0,"x_max":0,"o":"m 593 1042 l 593 621 b 381 697 536 669 463 697 b 43 351 194 697 43 543 b 381 1 43 160 194 1 b 593 82 463 1 536 33 l 593 1 l 725 1 l 725 1042 z m 381 131 b 167 351 263 131 167 229 b 381 572 167 474 263 572 b 593 381 492 572 582 489 l 593 322 b 381 131 582 214 492 131 z "},"e":{"ha":772,"x_min":0,"x_max":0,"o":"m 381 696 b 42 346 196 696 42 540 b 381 -3 42 151 196 -3 b 669 160 503 -3 610 60 l 497 160 b 381 124 465 136 426 124 b 175 285 283 124 200 190 l 589 285 l 703 285 l 717 285 b 722 346 721 303 722 322 b 381 696 722 540 569 696 z m 381 569 b 589 408 479 569 564 500 l 175 408 b 381 569 201 501 282 569 z "},"f":{"ha":528,"x_min":0,"x_max":0,"o":"m 258 529 l 258 678 l 263 678 b 486 908 263 806 363 908 l 486 1039 b 135 678 292 1039 135 878 l 135 529 l 31 529 l 31 404 l 135 404 l 135 -1 l 258 -1 l 258 404 l 489 404 l 489 529 z "},"g":{"ha":772,"x_min":0,"x_max":0,"o":"m 593 693 l 593 615 b 381 693 533 665 460 693 b 43 349 194 693 43 539 b 90 171 43 283 61 225 b 181 68 114 133 143 97 b 381 1 236 28 304 1 b 588 78 460 1 532 29 b 593 79 592 78 589 79 l 593 67 l 593 -51 b 386 -212 568 -143 486 -212 b 181 -56 290 -212 208 -146 l 106 -185 b 386 -339 168 -278 268 -339 b 593 -265 464 -339 533 -311 b 724 8 672 -203 724 -103 l 724 693 z m 381 129 b 247 175 329 129 285 144 b 176 279 214 201 192 236 b 165 349 169 301 165 325 b 381 569 165 471 261 569 b 593 378 490 569 578 485 b 586 286 589 308 588 296 b 517 179 571 243 549 207 b 381 129 479 147 435 129 z m 181 -51 l 181 -56 l 183 -51 z "},"h":{"ha":746,"x_min":0,"x_max":0,"o":"m 654 364 b 332 682 636 540 500 682 b 136 610 258 682 192 654 l 136 1042 l 3 1042 l 3 3 l 8 1 l 135 1 l 136 399 b 332 554 164 488 239 554 b 528 396 426 554 501 489 l 528 1 l 651 1 b 654 364 654 324 654 344 z "},"i":{"ha":206,"x_min":0,"x_max":0,"o":"m 163 694 l 35 694 l 35 1 l 163 1 z m 32 901 b 101 832 32 863 63 832 b 171 901 139 832 171 863 b 101 971 171 939 139 971 b 32 901 63 971 32 939 z "},"j":{"ha":453,"x_min":0,"x_max":0,"o":"m 56 -346 b 403 -22 228 -335 376 -217 l 403 693 l 264 693 l 264 -22 b 56 -207 264 -115 171 -207 z m 264 901 b 333 832 264 863 294 832 b 403 901 371 832 403 863 b 333 971 403 939 371 971 b 264 901 294 971 264 939 z "},"k":{"ha":728,"x_min":0,"x_max":0,"o":"m 433 714 l 194 288 l 194 1047 l 53 1047 l 53 1 l 194 1 l 194 1 l 339 288 l 503 1 l 671 1 l 433 406 l 600 714 z "},"l":{"ha":261,"x_min":0,"x_max":0,"o":"m 203 1040 l 61 1040 l 61 0 l 203 0 z "},"m":{"ha":1272,"x_min":0,"x_max":0,"o":"m 1229 371 b 1179 526 1222 426 1208 481 b 903 696 1119 626 1021 696 b 636 550 792 696 696 638 b 376 696 576 638 482 696 b 182 626 304 696 236 671 l 182 696 l 44 696 l 44 0 l 182 0 l 182 426 b 376 564 214 510 288 564 b 575 406 471 564 547 500 l 571 11 l 571 3 l 699 3 l 699 399 b 903 564 725 497 804 564 b 1103 406 997 564 1074 500 l 1103 3 l 1228 3 z "},"n":{"ha":751,"x_min":0,"x_max":0,"o":"m 706 371 b 379 694 690 549 553 694 b 189 628 308 694 243 668 l 189 694 l 50 694 l 50 0 l 189 0 l 189 425 b 379 564 221 508 290 564 b 579 406 474 564 553 499 l 579 1 l 706 1 z "},"o":{"ha":757,"x_min":0,"x_max":0,"o":"m 379 693 b 42 347 193 693 42 539 b 379 1 42 154 193 1 b 715 347 564 1 715 154 b 379 693 715 539 564 693 z m 379 128 b 164 347 260 128 164 226 b 379 567 164 468 260 567 b 593 347 497 567 593 468 b 379 128 593 226 497 128 z "},"p":{"ha":782,"x_min":0,"x_max":0,"o":"m 188 -344 l 188 76 b 403 -1 247 28 319 -1 b 739 346 588 -1 739 153 b 403 694 739 538 588 694 b 188 617 319 694 247 665 l 188 694 l 56 694 l 56 -344 z m 403 568 b 617 346 521 568 617 468 b 403 125 617 225 521 125 b 188 318 292 125 203 208 l 188 375 b 403 568 203 482 292 568 z "},"q":{"ha":785,"x_min":0,"x_max":0,"o":"m 732 -351 l 732 699 l 599 699 l 599 619 b 383 699 539 669 465 699 b 40 347 194 699 40 540 b 383 -4 40 153 194 -4 b 599 75 465 -4 539 25 l 599 -351 z m 599 318 b 383 124 588 207 493 124 b 164 347 264 124 164 224 b 383 571 164 471 264 571 b 599 376 493 571 588 483 z "},"r":{"ha":439,"x_min":0,"x_max":0,"o":"m 172 696 l 54 696 l 54 0 l 172 0 l 172 349 b 388 567 183 467 267 567 l 388 689 b 172 610 304 689 232 658 z "},"s":{"ha":551,"x_min":0,"x_max":0,"o":"m 296 422 b 172 494 185 426 172 467 b 261 574 172 549 215 574 b 375 514 304 572 342 553 l 392 494 l 454 606 l 446 615 b 261 697 407 664 332 697 l 247 697 b 51 494 140 697 51 606 b 289 300 51 365 181 304 b 392 213 363 289 392 261 b 292 117 392 158 349 117 l 289 117 b 119 189 217 118 151 139 l 104 213 l 46 113 l 53 104 b 264 1 96 42 179 1 l 292 1 b 508 213 414 1 508 96 b 296 422 508 325 425 407 z "},"t":{"ha":590,"x_min":0,"x_max":0,"o":"m 365 696 l 365 1042 l 224 1042 l 224 696 l 44 696 l 44 554 l 224 554 l 224 0 l 365 0 l 365 554 l 544 554 l 544 696 z "},"u":{"ha":765,"x_min":0,"x_max":0,"o":"m 699 693 l 583 693 l 582 693 l 582 290 b 382 132 554 197 476 132 b 182 290 288 132 208 197 l 182 424 l 182 640 l 182 693 l 56 693 l 56 390 l 56 325 b 103 168 60 268 76 214 b 382 1 163 68 265 1 b 582 75 458 1 525 29 l 582 1 l 706 1 l 706 693 z "},"v":{"ha":706,"x_min":0,"x_max":0,"o":"m 349 315 l 182 694 l 49 694 l 324 54 l 347 -1 l 349 0 l 349 -1 l 361 33 l 646 694 l 515 694 z "},"w":{"ha":985,"x_min":0,"x_max":0,"o":"m 664 297 l 489 697 l 313 297 l 146 693 l 25 693 l 294 44 l 313 0 l 313 1 l 314 0 l 331 42 l 488 422 l 643 44 l 664 0 l 664 1 l 664 0 l 674 26 l 950 693 l 831 693 z "},"x":{"ha":643,"x_min":0,"x_max":0,"o":"m 471 203 l 388 349 l 583 692 l 443 692 l 319 471 l 196 692 l 57 692 l 253 349 l 171 203 l 51 -1 l 181 -1 l 190 -1 l 190 7 l 319 232 l 449 7 l 449 -1 l 590 -1 z "},"y":{"ha":747,"x_min":0,"x_max":0,"o":"m 440 144 l 672 685 l 540 685 l 371 301 l 201 685 l 69 685 l 301 143 l 90 -350 l 229 -350 l 371 -18 l 371 -18 l 382 8 z "},"z":{"ha":607,"x_min":0,"x_max":0,"o":"m 43 692 l 43 567 l 353 567 l 153 210 l 32 0 l 561 0 l 561 122 l 247 122 l 574 692 z "},":":{"ha":233,"x_min":0,"x_max":0,"o":"m 189 626 b 119 696 189 665 157 696 b 50 626 82 696 50 665 b 119 557 50 589 82 557 b 189 626 157 557 189 589 z m 190 68 b 121 138 190 107 158 138 b 51 68 82 138 51 107 b 121 -1 51 31 82 -1 b 190 68 158 -1 190 31 z "},"!":{"ha":244,"x_min":0,"x_max":0,"o":"m 183 969 l 53 969 l 53 228 l 183 228 z m 201 79 b 119 161 201 124 164 161 b 38 79 74 161 38 124 b 119 -3 38 33 74 -3 b 201 79 164 -3 201 33 z "},"#":{"ha":1294,"x_min":0,"x_max":0,"o":"m 1096 972 l 950 726 l 632 726 l 779 972 l 618 972 l 474 726 l 240 726 l 240 601 l 399 601 l 261 369 l 53 369 l 53 242 l 186 242 l 46 3 l 200 3 l 342 242 l 664 242 l 522 3 l 676 3 l 819 242 l 1065 242 l 1065 369 l 894 369 l 1033 601 l 1253 601 l 1253 726 l 1111 726 l 1256 972 z m 418 369 l 557 601 l 876 601 l 739 369 z "},"$":{"ha":764,"x_min":0,"x_max":0,"o":"m 449 -876 b 444 -875 447 -876 446 -876 l 442 -875 b 436 -868 438 -875 436 -872 b 442 -861 436 -865 438 -862 l 444 -861 l 446 -861 l 449 -861 b 456 -867 451 -861 454 -862 l 460 -860 b 449 -854 456 -856 453 -854 l 449 -849 l 442 -849 l 442 -853 b 429 -868 433 -854 429 -860 b 442 -882 429 -875 433 -881 b 444 -883 443 -882 443 -883 l 447 -883 l 449 -883 b 458 -892 456 -885 458 -887 b 449 -901 458 -899 456 -901 l 447 -901 l 446 -901 l 442 -901 b 432 -894 439 -900 436 -899 l 429 -900 b 442 -908 432 -904 436 -907 l 442 -914 l 449 -914 l 449 -908 b 464 -892 458 -908 464 -903 b 449 -876 464 -883 458 -878 z m 411 568 b 403 571 407 568 404 569 b 336 576 386 572 358 572 b 301 585 324 576 313 579 b 199 701 236 600 199 636 b 301 840 199 767 242 822 b 336 847 313 844 321 847 l 357 847 b 411 838 378 843 394 843 b 543 749 463 822 503 794 l 608 864 b 411 969 565 918 490 957 l 411 1063 l 301 1063 l 301 971 b 72 701 171 953 72 839 b 301 454 72 567 175 488 b 336 449 313 453 321 450 b 401 439 358 443 378 443 b 411 438 404 438 407 438 b 576 286 510 419 576 381 b 411 117 576 193 503 124 l 401 117 l 363 117 b 301 126 339 118 319 122 b 125 236 219 143 158 186 l 69 142 b 301 4 118 69 201 19 l 301 -110 l 411 -110 l 411 -1 b 694 286 569 3 694 131 b 411 568 694 446 574 546 z "},"%":{"ha":1056,"x_min":0,"x_max":0,"o":"m 263 975 b 51 761 146 975 51 879 b 263 547 51 643 146 547 b 471 761 378 547 471 643 b 263 975 471 879 378 975 z m 363 761 b 263 658 363 704 317 658 b 161 761 206 658 161 704 b 263 865 161 821 206 865 b 363 761 317 865 363 821 z m 794 428 b 586 215 679 428 586 332 b 794 1 586 97 679 1 b 1003 215 908 1 1003 97 b 794 428 1003 332 908 428 z m 893 215 b 794 111 893 158 849 111 b 694 215 739 111 694 158 b 794 317 694 271 739 317 b 893 215 849 317 893 271 z m 865 940 l 713 940 l 164 11 l 310 11 z "},"&":{"ha":1026,"x_min":0,"x_max":0,"o":"m 961 1 l 718 267 b 722 329 719 288 722 307 l 722 461 l 596 461 l 596 401 l 454 556 b 614 753 538 582 610 658 l 614 758 l 614 781 b 404 974 603 888 514 974 b 196 781 297 974 207 888 l 196 758 l 196 753 b 246 619 200 704 217 660 b 60 329 136 568 60 457 b 394 4 60 153 210 4 l 396 4 b 668 151 508 6 611 63 l 804 1 z m 333 688 b 306 758 315 708 306 732 l 306 769 b 404 863 311 824 353 863 b 500 789 450 863 488 833 b 504 758 504 779 504 769 b 407 654 504 703 461 658 l 390 654 l 365 654 z m 394 128 b 188 329 279 128 188 218 b 335 522 188 419 251 497 l 579 251 b 394 128 547 181 478 132 z "},"?":{"ha":667,"x_min":0,"x_max":0,"o":"m 326 971 b 28 664 161 971 28 832 l 28 657 l 147 657 l 147 664 b 326 849 147 765 231 849 b 507 664 426 849 507 765 b 479 561 507 624 497 590 l 471 551 l 276 365 l 257 347 l 256 261 l 256 231 l 388 231 l 388 307 l 560 468 b 604 549 581 492 593 519 l 610 561 b 626 664 621 594 626 629 b 326 971 626 832 492 971 z m 326 163 b 246 81 282 163 246 125 b 326 -1 246 35 282 -1 b 408 81 375 -1 408 35 b 326 163 408 125 375 163 z "},"@":{"ha":1013,"x_min":0,"x_max":0,"o":"m 510 974 b 43 488 251 974 43 757 b 510 0 43 219 251 0 l 510 139 b 175 488 325 139 175 296 b 510 835 175 681 325 835 b 846 488 694 835 846 681 b 806 322 846 426 832 372 b 750 244 790 294 772 268 l 749 244 l 749 242 b 736 238 744 240 740 238 b 719 256 725 238 719 243 l 719 360 l 719 718 l 617 718 l 617 676 b 493 713 579 699 536 713 b 269 483 371 713 269 610 b 493 256 269 358 371 256 b 617 293 536 256 579 267 l 617 265 l 615 232 b 636 164 615 206 622 183 b 746 101 658 126 697 101 b 826 128 775 101 801 110 b 853 156 836 138 846 146 b 976 488 931 244 976 360 b 510 974 976 757 767 974 z m 493 358 b 371 483 426 358 371 413 b 493 611 371 556 426 611 b 617 503 556 611 607 564 l 617 468 b 493 358 607 403 556 358 z "},"¥":{"ha":901,"x_min":0,"x_max":0,"o":"m 676 972 l 450 558 l 215 972 l 65 972 l 361 451 l 144 451 l 144 375 l 382 375 l 382 289 l 144 289 l 144 213 l 382 213 l 382 0 l 517 0 l 517 213 l 751 213 l 751 289 l 517 289 l 514 375 l 751 375 l 751 451 l 538 451 l 831 972 z "},"£":{"ha":878,"x_min":0,"x_max":0,"o":"m 725 100 b 600 44 692 65 649 44 b 472 100 551 44 510 65 l 461 110 l 451 122 b 308 182 408 154 358 172 l 308 419 l 508 419 l 508 529 l 308 529 l 308 660 l 313 660 b 508 860 313 772 397 860 b 703 668 618 860 703 775 l 819 668 b 508 974 819 835 678 974 l 504 974 b 203 660 338 974 203 832 l 203 529 l 110 529 l 110 419 l 203 419 l 203 175 b 53 89 146 164 96 135 l 50 86 l 136 -3 l 142 6 b 267 58 175 40 218 58 b 394 6 315 58 357 40 l 404 -6 l 419 -18 b 600 -81 469 -56 535 -81 b 814 11 682 -81 757 -49 l 819 18 l 731 107 z "},";":{"ha":318,"x_min":0,"x_max":0,"o":"m 74 -1328 l 69 -1325 l 63 -1337 l 67 -1340 z m 75 -1307 b 72 -1303 75 -1304 74 -1303 b 68 -1307 69 -1303 68 -1304 b 72 -1310 68 -1308 69 -1310 b 75 -1307 74 -1310 75 -1308 z m 253 236 l 174 282 l 47 43 l 126 -3 z m 274 635 b 217 692 274 668 254 692 b 161 635 183 692 161 668 b 217 576 161 600 183 576 b 274 635 254 576 274 600 z "},"¿":{"ha":667,"x_min":0,"x_max":0,"o":"m 328 -1 b 626 306 493 -1 626 138 l 626 313 l 507 313 l 507 306 b 328 121 507 204 424 121 b 147 306 228 121 147 204 b 175 408 147 346 157 379 l 183 418 l 378 604 l 397 622 l 399 708 l 399 739 l 267 739 l 267 663 l 94 501 b 50 421 74 478 61 450 l 44 408 b 28 306 33 375 28 340 b 328 -1 28 138 163 -1 z m 328 807 b 408 889 372 807 408 844 b 328 971 408 935 372 971 b 246 889 279 971 246 935 b 328 807 246 844 279 807 z "},"¢":{"ha":643,"x_min":0,"x_max":0,"o":"m 524 176 b 417 129 492 153 457 138 b 382 126 406 125 393 126 b 288 150 347 126 317 135 b 163 346 214 185 163 257 b 288 546 163 435 214 511 b 382 564 317 558 349 564 l 417 564 b 518 517 457 557 486 540 l 539 501 l 597 622 l 581 631 b 417 694 532 665 476 689 l 417 803 l 288 803 l 288 682 b 33 346 144 642 33 507 b 288 8 33 183 144 53 l 288 -125 l 417 -125 l 417 -4 b 581 58 476 6 532 24 l 593 68 l 539 192 z "},"^":{"ha":808,"x_min":0,"x_max":0,"o":"m 406 972 l 332 853 l 76 415 l 213 415 l 406 733 l 594 415 l 733 415 l 475 853 z "},"[":{"ha":339,"x_min":0,"x_max":0,"o":"m 175 971 l 318 971 l 318 1089 l 175 1089 l 57 1089 l 57 971 l 57 4 l 57 -114 l 175 -114 l 318 -114 l 318 4 l 175 4 z "},"]":{"ha":419,"x_min":0,"x_max":0,"o":"m 68 1103 l 68 985 l 213 985 l 213 8 l 68 8 l 68 -112 l 213 -112 l 333 -112 l 333 8 l 333 985 l 333 1103 l 213 1103 z "},"“":{"ha":457,"x_min":0,"x_max":0,"o":"m 310 764 l 389 810 l 263 1049 l 183 1003 z m 196 700 l 275 746 l 149 985 l 69 939 z "},"”":{"ha":425,"x_min":0,"x_max":0,"o":"m 263 1003 l 183 1049 l 57 810 l 136 764 z m 376 939 l 297 985 l 171 746 l 250 700 z "},"’":{"ha":308,"x_min":0,"x_max":0,"o":"m 254 1003 l 175 1049 l 49 810 l 128 764 z "},"•":{"ha":382,"x_min":0,"x_max":0,"o":"m 53 422 b 190 285 53 349 117 285 b 325 422 263 285 325 349 b 190 557 325 494 263 557 b 53 422 117 557 53 494 z "},"–":{"ha":771,"x_min":0,"x_max":0,"o":"m 76 354 l 696 354 l 696 476 l 76 476 z "},"—":{"ha":883,"x_min":0,"x_max":0,"o":"m 76 476 l 76 354 l 824 354 l 824 476 z "},"_":{"ha":914,"x_min":0,"x_max":0,"o":"m 76 121 l 76 -1 l 824 -1 l 824 121 z "},"-":{"ha":578,"x_min":0,"x_max":0,"o":"m 51 476 l 51 354 l 517 354 l 517 476 z "},"+":{"ha":585,"x_min":0,"x_max":0,"o":"m 350 478 l 350 643 l 222 643 l 222 478 l 57 478 l 57 350 l 222 350 l 222 183 l 350 183 l 350 350 l 517 350 l 517 478 z "},"=":{"ha":575,"x_min":0,"x_max":0,"o":"m 51 593 l 51 471 l 517 471 l 517 593 z m 51 360 l 51 238 l 517 238 l 517 360 z "},"<":{"ha":603,"x_min":0,"x_max":0,"o":"m 54 408 l 161 346 l 544 119 l 544 240 l 264 408 l 544 576 l 544 699 l 161 468 z "},">":{"ha":604,"x_min":0,"x_max":0,"o":"m 54 699 l 54 576 l 335 408 l 54 240 l 54 119 l 438 346 l 544 408 l 438 468 z "},"\\":{"ha":875,"x_min":0,"x_max":0,"o":"m 224 972 l 69 972 l 644 -1 l 806 -1 z "},")":{"ha":382,"x_min":0,"x_max":0,"o":"m 225 518 b 51 103 225 331 140 129 l 106 1 b 324 518 218 57 324 269 b 103 1039 324 772 219 979 l 61 933 b 225 518 147 900 225 706 z "},"*":{"ha":1157,"x_min":0,"x_max":0,"o":"m 679 857 l 736 914 l 704 946 l 646 890 l 646 971 l 603 971 l 603 890 l 546 946 l 514 914 l 569 857 l 489 857 l 489 814 l 569 814 l 514 756 l 546 724 l 603 781 l 603 700 l 646 700 l 646 781 l 704 724 l 736 756 l 679 814 l 760 814 l 760 857 z "},"/":{"ha":874,"x_min":0,"x_max":0,"o":"m 69 -1 l 231 -1 l 806 972 l 651 972 z "},",":{"ha":310,"x_min":0,"x_max":0,"o":"m 242 104 l 163 150 l 36 -89 l 115 -135 z "},".":{"ha":246,"x_min":0,"x_max":0,"o":"m 190 68 b 121 138 190 107 158 138 b 51 68 82 138 51 107 b 121 -1 51 31 82 -1 b 190 68 158 -1 190 31 z "},"‚":{"ha":331,"x_min":0,"x_max":0,"o":"m 268 99 l 189 144 l 63 -94 l 142 -140 z "},"„":{"ha":1157,"x_min":0,"x_max":0,"o":"m 210 67 l 131 113 l 4 -126 l 83 -172 z m 324 3 l 244 49 l 118 -190 l 197 -236 z "},"|":{"ha":215,"x_min":0,"x_max":0,"o":"m 58 1042 l 58 -1 l 154 -1 l 154 1042 z "},"{":{"ha":536,"x_min":0,"x_max":0,"o":"m 219 757 b 53 575 219 656 144 575 l 53 572 l 53 469 l 53 468 b 219 285 144 468 219 385 b 482 -3 219 126 338 -3 l 482 92 b 315 285 390 92 315 183 b 203 521 315 383 269 469 b 315 757 269 575 315 658 b 482 950 315 858 390 950 l 482 1046 b 219 757 338 1046 219 917 z "},"}":{"ha":547,"x_min":0,"x_max":0,"o":"m 315 757 b 53 1046 315 917 197 1046 l 53 950 b 219 757 144 950 219 858 b 332 521 219 658 265 575 b 219 285 265 469 219 383 b 53 92 219 183 144 92 l 53 -3 b 315 285 197 -3 315 126 b 482 468 315 385 390 468 l 482 469 l 482 572 l 482 575 b 315 757 390 575 315 656 z "},"~":{"ha":686,"x_min":0,"x_max":0,"o":"m 219 426 b 315 386 258 426 290 413 l 324 379 l 333 369 b 469 322 372 340 421 322 b 628 392 531 322 583 346 l 632 396 l 565 461 l 563 457 b 469 415 536 429 506 415 b 375 457 432 415 401 429 l 365 467 l 357 472 b 219 519 317 504 271 519 b 63 451 160 519 106 496 l 58 447 l 124 382 l 128 386 b 219 426 151 413 186 426 z "},"˜":{"ha":685,"x_min":0,"x_max":0,"o":"m 219 946 b 315 906 258 946 290 932 l 324 899 l 333 889 b 469 842 372 860 421 842 b 628 911 531 842 583 865 l 632 915 l 565 981 l 563 976 b 469 935 536 949 506 935 b 375 976 432 935 401 949 l 365 986 l 357 992 b 219 1039 317 1024 271 1039 b 63 971 160 1039 106 1015 l 58 967 l 124 901 l 128 906 b 219 946 151 932 186 946 z "},"Ç":{"ha":913,"x_min":0,"x_max":0,"o":"m 499 11 b 549 7 517 11 533 7 b 825 96 653 7 747 42 l 767 224 b 549 146 707 175 632 146 b 206 488 360 146 206 299 b 549 833 206 679 360 833 b 764 757 631 833 704 806 l 822 883 b 549 968 746 938 653 968 b 68 488 282 968 68 756 b 431 22 68 264 222 78 l 417 -36 l 417 -39 l 444 -104 l 471 -85 b 492 -78 478 -81 485 -78 b 529 -115 513 -78 529 -94 b 492 -151 529 -136 513 -151 b 471 -142 485 -151 478 -149 l 449 -124 l 417 -190 l 431 -200 b 492 -219 451 -215 471 -219 b 599 -115 551 -219 599 -175 b 497 -7 599 -56 553 -8 z "},"Ñ":{"ha":832,"x_min":0,"x_max":0,"o":"m 646 972 l 646 219 l 218 972 l 64 972 l 64 0 l 194 0 l 194 735 l 621 0 l 776 0 l 776 972 z m 290 1224 b 386 1183 329 1224 361 1210 l 394 1176 l 404 1167 b 540 1119 443 1138 492 1119 b 699 1189 601 1119 654 1143 l 703 1193 l 636 1258 l 633 1254 b 540 1213 607 1226 576 1213 b 446 1254 503 1213 472 1226 l 436 1264 l 428 1269 b 290 1317 388 1301 342 1317 b 133 1249 231 1317 176 1293 l 129 1244 l 194 1179 l 199 1183 b 290 1224 222 1210 257 1224 z "},"Ÿ":{"ha":901,"x_min":0,"x_max":0,"o":"m 368 1182 b 297 1254 368 1221 335 1254 b 225 1182 254 1254 225 1221 b 297 1111 225 1142 254 1111 b 368 1182 335 1111 368 1142 z m 660 1182 b 589 1254 660 1221 629 1254 b 517 1182 550 1254 517 1221 b 589 1111 517 1142 550 1111 b 660 1182 629 1111 660 1142 z m 514 417 l 831 975 l 679 975 l 438 557 l 211 975 l 58 975 l 374 417 l 374 0 l 514 0 z "},"`":{"ha":386,"x_min":0,"x_max":0,"o":"m 331 904 l 97 1010 l 46 897 l 276 789 z "},"ˆ":{"ha":569,"x_min":0,"x_max":0,"o":"m 507 949 l 276 1056 l 274 1054 l 274 1056 l 43 949 l 93 835 l 274 919 l 454 835 z "},"¨":{"ha":554,"x_min":0,"x_max":0,"o":"m 201 983 b 131 1056 201 1022 168 1056 b 58 983 88 1056 58 1022 b 131 913 58 943 88 913 b 201 983 168 913 201 943 z m 493 983 b 422 1056 493 1022 463 1056 b 350 983 383 1056 350 1022 b 422 913 350 943 383 913 b 493 983 463 913 493 943 z "},"À":{"ha":967,"x_min":0,"x_max":0,"o":"m 751 0 l 903 0 l 482 972 l 63 0 l 210 0 l 278 151 l 688 151 z m 336 278 l 482 615 l 629 278 z m 625 1182 l 392 1288 l 340 1175 l 571 1067 z "},"È":{"ha":722,"x_min":0,"x_max":0,"o":"m 204 129 l 204 414 l 553 414 l 553 543 l 204 543 l 204 842 l 643 842 l 643 972 l 71 972 l 71 0 l 650 0 l 650 129 z m 503 1182 l 269 1288 l 218 1175 l 449 1067 z "},"Â":{"ha":967,"x_min":0,"x_max":0,"o":"m 751 0 l 903 0 l 482 972 l 63 0 l 210 0 l 278 151 l 688 151 z m 336 278 l 482 615 l 629 278 z m 715 1226 l 485 1333 l 482 1332 l 482 1333 l 251 1226 l 301 1113 l 482 1197 l 663 1113 z "},"Ã":{"ha":967,"x_min":0,"x_max":0,"o":"m 751 0 l 903 0 l 482 972 l 63 0 l 210 0 l 278 151 l 688 151 z m 336 278 l 482 615 l 629 278 z m 357 1224 b 453 1183 396 1224 428 1210 l 461 1176 l 471 1167 b 607 1119 510 1138 558 1119 b 765 1189 668 1119 721 1143 l 769 1193 l 703 1258 l 700 1254 b 607 1213 674 1226 643 1213 b 513 1254 569 1213 539 1226 l 503 1264 l 494 1269 b 357 1317 454 1301 408 1317 b 200 1249 297 1317 243 1293 l 196 1244 l 261 1179 l 265 1183 b 357 1224 289 1210 324 1224 z "},"Ä":{"ha":967,"x_min":0,"x_max":0,"o":"m 751 0 l 903 0 l 482 972 l 63 0 l 210 0 l 278 151 l 688 151 z m 336 278 l 482 615 l 629 278 z m 408 1261 b 338 1333 408 1300 375 1333 b 265 1261 294 1333 265 1300 b 338 1190 265 1221 294 1190 b 408 1261 375 1190 408 1221 z m 700 1261 b 629 1333 700 1300 669 1333 b 557 1261 590 1333 557 1300 b 629 1190 557 1221 590 1190 b 700 1261 669 1190 700 1221 z "},"Ê":{"ha":722,"x_min":0,"x_max":0,"o":"m 204 129 l 204 414 l 553 414 l 553 543 l 204 543 l 204 842 l 643 842 l 643 972 l 71 972 l 71 0 l 650 0 l 650 129 z m 593 1226 l 363 1333 l 360 1332 l 360 1333 l 129 1226 l 179 1113 l 360 1197 l 540 1113 z "},"Ë":{"ha":722,"x_min":0,"x_max":0,"o":"m 204 129 l 204 414 l 553 414 l 553 543 l 204 543 l 204 842 l 643 842 l 643 972 l 71 972 l 71 0 l 650 0 l 650 129 z m 286 1261 b 215 1333 286 1300 253 1333 b 143 1261 172 1333 143 1300 b 215 1190 143 1221 172 1190 b 286 1261 253 1190 286 1221 z m 578 1261 b 507 1333 578 1300 547 1333 b 435 1261 468 1333 435 1300 b 507 1190 435 1221 468 1190 b 578 1261 547 1190 578 1221 z "},"Ì":{"ha":238,"x_min":0,"x_max":0,"o":"m 189 972 l 54 972 l 54 -1 l 189 -1 z m 263 1182 l 29 1288 l -22 1175 l 208 1067 z "},"Í":{"ha":238,"x_min":0,"x_max":0,"o":"m 47 1067 l 278 1175 l 226 1288 l -7 1182 z m 189 972 l 54 972 l 54 -1 l 189 -1 z "},"Î":{"ha":238,"x_min":0,"x_max":0,"o":"m 189 972 l 54 972 l 54 -1 l 189 -1 z m 353 1226 l 122 1333 l 119 1332 l 119 1333 l -111 1226 l -61 1113 l 119 1197 l 300 1113 z "},"Ï":{"ha":238,"x_min":0,"x_max":0,"o":"m 189 972 l 54 972 l 54 -1 l 189 -1 z m 46 1261 b -25 1333 46 1300 13 1333 b -97 1261 -68 1333 -97 1300 b -25 1190 -97 1221 -68 1190 b 46 1261 13 1190 46 1221 z m 338 1261 b 267 1333 338 1300 307 1333 b 194 1261 228 1333 194 1300 b 267 1190 194 1221 228 1190 b 338 1261 307 1190 338 1221 z "},"Ò":{"ha":1056,"x_min":0,"x_max":0,"o":"m 519 974 b 58 489 264 974 58 756 b 519 1 58 221 264 1 b 993 489 789 1 993 221 b 519 974 993 756 789 974 z m 519 135 b 192 489 338 135 192 293 b 519 839 192 682 338 839 b 860 489 714 839 860 682 b 519 135 860 293 714 135 z m 669 1182 l 436 1288 l 385 1175 l 615 1067 z "},"Ô":{"ha":1056,"x_min":0,"x_max":0,"o":"m 519 974 b 58 489 264 974 58 756 b 519 1 58 221 264 1 b 993 489 789 1 993 221 b 519 974 993 756 789 974 z m 519 135 b 192 489 338 135 192 293 b 519 839 192 682 338 839 b 860 489 714 839 860 682 b 519 135 860 293 714 135 z m 760 1226 l 529 1333 l 526 1332 l 526 1333 l 296 1226 l 346 1113 l 526 1197 l 707 1113 z "},"Õ":{"ha":1056,"x_min":0,"x_max":0,"o":"m 519 974 b 58 489 264 974 58 756 b 519 1 58 221 264 1 b 993 489 789 1 993 221 b 519 974 993 756 789 974 z m 519 135 b 192 489 338 135 192 293 b 519 839 192 682 338 839 b 860 489 714 839 860 682 b 519 135 860 293 714 135 z m 401 1224 b 497 1183 440 1224 472 1210 l 506 1176 l 515 1167 b 651 1119 554 1138 603 1119 b 810 1189 713 1119 765 1143 l 814 1193 l 747 1258 l 744 1254 b 651 1213 718 1226 688 1213 b 557 1254 614 1213 583 1226 l 547 1264 l 539 1269 b 401 1317 499 1301 453 1317 b 244 1249 342 1317 288 1293 l 240 1244 l 306 1179 l 310 1183 b 401 1224 333 1210 368 1224 z "},"Ö":{"ha":1056,"x_min":0,"x_max":0,"o":"m 519 974 b 58 489 264 974 58 756 b 519 1 58 221 264 1 b 993 489 789 1 993 221 b 519 974 993 756 789 974 z m 519 135 b 192 489 338 135 192 293 b 519 839 192 682 338 839 b 860 489 714 839 860 682 b 519 135 860 293 714 135 z m 453 1261 b 382 1333 453 1300 419 1333 b 310 1261 339 1333 310 1300 b 382 1190 310 1221 339 1190 b 453 1261 419 1190 453 1221 z m 744 1261 b 674 1333 744 1300 714 1333 b 601 1261 635 1333 601 1300 b 674 1190 601 1221 635 1190 b 744 1261 714 1190 744 1221 z "},"Ù":{"ha":844,"x_min":0,"x_max":0,"o":"m 632 974 l 632 349 b 418 135 632 231 536 135 b 204 349 300 135 204 231 l 204 504 l 204 974 l 71 974 l 71 419 l 71 342 b 128 157 71 239 128 157 b 418 1 190 63 296 1 b 767 342 610 1 763 153 l 767 504 l 767 974 z m 564 1182 l 331 1288 l 279 1175 l 510 1067 z "},"Û":{"ha":844,"x_min":0,"x_max":0,"o":"m 632 974 l 632 349 b 418 135 632 231 536 135 b 204 349 300 135 204 231 l 204 504 l 204 974 l 71 974 l 71 419 l 71 342 b 128 157 71 239 128 157 b 418 1 190 63 296 1 b 767 342 610 1 763 153 l 767 504 l 767 974 z m 654 1226 l 424 1333 l 421 1332 l 421 1333 l 190 1226 l 240 1113 l 421 1197 l 601 1113 z "},"Ü":{"ha":844,"x_min":0,"x_max":0,"o":"m 632 974 l 632 349 b 418 135 632 231 536 135 b 204 349 300 135 204 231 l 204 504 l 204 974 l 71 974 l 71 419 l 71 342 b 128 157 71 239 128 157 b 418 1 190 63 296 1 b 767 342 610 1 763 153 l 767 504 l 767 974 z m 347 1261 b 276 1333 347 1300 314 1333 b 204 1261 233 1333 204 1300 b 276 1190 204 1221 233 1190 b 347 1261 314 1190 347 1221 z m 639 1261 b 568 1333 639 1300 608 1333 b 496 1261 529 1333 496 1300 b 568 1190 496 1221 529 1190 b 639 1261 608 1190 639 1221 z "},"Ý":{"ha":901,"x_min":0,"x_max":0,"o":"m 378 1067 l 608 1175 l 557 1288 l 324 1182 z m 514 417 l 831 975 l 679 975 l 438 557 l 211 975 l 58 975 l 374 417 l 374 0 l 514 0 z "},"ý":{"ha":747,"x_min":0,"x_max":0,"o":"m 301 789 l 532 897 l 481 1010 l 247 904 z m 440 144 l 672 685 l 540 685 l 371 301 l 201 685 l 69 685 l 301 143 l 90 -350 l 229 -350 l 371 -18 l 371 -18 l 382 8 z "},"ü":{"ha":765,"x_min":0,"x_max":0,"o":"m 699 693 l 583 693 l 582 693 l 582 290 b 382 132 554 197 476 132 b 182 290 288 132 208 197 l 182 424 l 182 640 l 182 693 l 56 693 l 56 390 b 54 358 54 379 54 368 b 56 325 54 347 54 336 b 103 168 60 268 76 214 b 382 1 163 68 265 1 b 582 75 458 1 525 29 l 582 1 l 706 1 l 706 693 z m 308 983 b 238 1056 308 1022 275 1056 b 165 983 194 1056 165 1022 b 238 913 165 943 194 913 b 308 983 275 913 308 943 z m 600 983 b 529 1056 600 1022 569 1056 b 457 983 490 1056 457 1022 b 529 913 457 943 490 913 b 600 983 569 913 600 943 z "},"û":{"ha":765,"x_min":0,"x_max":0,"o":"m 699 693 l 583 693 l 582 693 l 582 290 b 382 132 554 197 476 132 b 182 290 288 132 208 197 l 182 424 l 182 640 l 182 693 l 56 693 l 56 390 b 54 358 54 379 54 368 b 56 325 54 347 54 336 b 103 168 60 268 76 214 b 382 1 163 68 265 1 b 582 75 458 1 525 29 l 582 1 l 706 1 l 706 693 z m 614 949 l 383 1056 l 381 1054 l 381 1056 l 150 949 l 200 835 l 381 919 l 561 835 z "},"ù":{"ha":765,"x_min":0,"x_max":0,"o":"m 699 693 l 583 693 l 582 693 l 582 290 b 382 132 554 197 476 132 b 182 290 288 132 208 197 l 182 424 l 182 640 l 182 693 l 56 693 l 56 390 b 54 358 54 379 54 368 b 56 325 54 347 54 336 b 103 168 60 268 76 214 b 382 1 163 68 265 1 b 582 75 458 1 525 29 l 582 1 l 706 1 l 706 693 z m 525 904 l 292 1010 l 240 897 l 471 789 z "},"ö":{"ha":757,"x_min":0,"x_max":0,"o":"m 379 693 b 42 347 193 693 42 539 b 379 1 42 154 193 1 b 715 347 564 1 715 154 b 379 693 715 539 564 693 z m 379 128 b 164 347 260 128 164 226 b 379 567 164 468 260 567 b 593 347 497 567 593 468 b 379 128 593 226 497 128 z m 304 983 b 233 1056 304 1022 271 1056 b 161 983 190 1056 161 1022 b 233 913 161 943 190 913 b 304 983 271 913 304 943 z m 596 983 b 525 1056 596 1022 565 1056 b 453 983 486 1056 453 1022 b 525 913 453 943 486 913 b 596 983 565 913 596 943 z "},"õ":{"ha":757,"x_min":0,"x_max":0,"o":"m 379 693 b 42 347 193 693 42 539 b 379 1 42 154 193 1 b 715 347 564 1 715 154 b 379 693 715 539 564 693 z m 379 128 b 164 347 260 128 164 226 b 379 567 164 468 260 567 b 593 347 497 567 593 468 b 379 128 593 226 497 128 z m 253 946 b 349 906 292 946 324 932 l 357 899 l 367 889 b 503 842 406 860 454 842 b 661 911 564 842 617 865 l 665 915 l 599 981 l 596 976 b 503 935 569 949 539 935 b 408 976 465 935 435 949 l 399 986 l 390 992 b 253 1039 350 1024 304 1039 b 96 971 193 1039 139 1015 l 92 967 l 157 901 l 161 906 b 253 946 185 932 219 946 z "},"ô":{"ha":757,"x_min":0,"x_max":0,"o":"m 379 693 b 42 347 193 693 42 539 b 379 1 42 154 193 1 b 715 347 564 1 715 154 b 379 693 715 539 564 693 z m 379 128 b 164 347 260 128 164 226 b 379 567 164 468 260 567 b 593 347 497 567 593 468 b 379 128 593 226 497 128 z m 610 949 l 379 1056 l 376 1054 l 376 1056 l 146 949 l 196 835 l 376 919 l 557 835 z "},"ò":{"ha":757,"x_min":0,"x_max":0,"o":"m 379 693 b 42 347 193 693 42 539 b 379 1 42 154 193 1 b 715 347 564 1 715 154 b 379 693 715 539 564 693 z m 379 128 b 164 347 260 128 164 226 b 379 567 164 468 260 567 b 593 347 497 567 593 468 b 379 128 593 226 497 128 z m 521 904 l 288 1010 l 236 897 l 467 789 z "},"ï":{"ha":206,"x_min":0,"x_max":0,"o":"m 179 694 l 51 694 l 51 1 l 179 1 z m 49 901 b 118 832 49 863 79 832 b 188 901 156 832 188 863 b 118 971 188 939 156 971 b 49 901 79 971 49 939 z m 31 983 b -40 1056 31 1022 -3 1056 b -112 983 -83 1056 -112 1022 b -40 913 -112 943 -83 913 b 31 983 -3 913 31 943 z m 322 983 b 251 1056 322 1022 292 1056 b 179 983 213 1056 179 1022 b 251 913 179 943 213 913 b 322 983 292 913 322 943 z "},"î":{"ha":206,"x_min":0,"x_max":0,"o":"m 179 694 l 51 694 l 51 1 l 179 1 z m 49 901 b 118 971 49 939 79 971 b 188 901 156 971 188 939 b 118 832 188 863 156 832 b 49 901 79 832 49 863 z m 336 949 l 106 1056 l 103 1054 l 103 1056 l -128 949 l -78 835 l 103 919 l 283 835 z "},"ì":{"ha":206,"x_min":0,"x_max":0,"o":"m 179 694 l 51 694 l 51 1 l 179 1 z m 49 901 b 118 971 49 939 79 971 b 188 901 156 971 188 939 b 118 832 188 863 156 832 b 49 901 79 832 49 863 z m 247 904 l 14 1010 l -37 897 l 193 789 z "},"ë":{"ha":772,"x_min":0,"x_max":0,"o":"m 381 696 b 42 346 196 696 42 540 b 381 -3 42 151 196 -3 b 669 160 503 -3 610 60 l 497 160 b 381 124 465 136 426 124 b 175 285 283 124 200 190 l 589 285 l 703 285 l 717 285 b 722 346 721 303 722 322 b 381 696 722 540 569 696 z m 381 569 b 589 408 479 569 564 500 l 175 408 b 381 569 201 501 282 569 z m 311 983 b 240 1056 311 1022 278 1056 b 168 983 197 1056 168 1022 b 240 913 168 943 197 913 b 311 983 278 913 311 943 z m 603 983 b 532 1056 603 1022 572 1056 b 460 983 493 1056 460 1022 b 532 913 460 943 493 913 b 603 983 572 913 603 943 z "},"ê":{"ha":772,"x_min":0,"x_max":0,"o":"m 381 696 b 42 346 196 696 42 540 b 381 -3 42 151 196 -3 b 669 160 503 -3 610 60 l 497 160 b 381 124 465 136 426 124 b 175 285 283 124 200 190 l 589 285 l 703 285 l 717 285 b 722 346 721 303 722 322 b 381 696 722 540 569 696 z m 381 569 b 589 408 479 569 564 500 l 175 408 b 381 569 201 501 282 569 z m 618 949 l 388 1056 l 385 1054 l 385 1056 l 154 949 l 204 835 l 385 919 l 565 835 z "},"è":{"ha":772,"x_min":0,"x_max":0,"o":"m 381 696 b 42 346 196 696 42 540 b 381 -3 42 151 196 -3 b 669 160 503 -3 610 60 l 497 160 b 381 124 465 136 426 124 b 175 285 283 124 200 190 l 589 285 l 703 285 l 717 285 b 722 346 721 303 722 322 b 381 696 722 540 569 696 z m 381 569 b 589 408 479 569 564 500 l 175 408 b 381 569 201 501 282 569 z m 528 904 l 294 1010 l 243 897 l 474 789 z "},"ä":{"ha":783,"x_min":0,"x_max":0,"o":"m 600 696 l 600 611 b 389 689 543 660 471 689 b 56 346 206 689 56 535 b 389 0 56 153 206 0 b 600 78 471 0 543 29 l 600 0 l 731 0 l 731 696 z m 389 126 b 176 346 272 126 176 225 b 389 563 176 464 272 563 b 600 374 496 563 585 481 l 600 315 b 389 126 585 208 496 126 z m 317 983 b 246 1056 317 1022 283 1056 b 174 983 203 1056 174 1022 b 246 913 174 943 203 913 b 317 983 283 913 317 943 z m 608 983 b 538 1056 608 1022 578 1056 b 465 983 499 1056 465 1022 b 538 913 465 943 499 913 b 608 983 578 913 608 943 z "},"ã":{"ha":783,"x_min":0,"x_max":0,"o":"m 600 696 l 600 611 b 389 689 543 660 471 689 b 56 346 206 689 56 535 b 389 0 56 153 206 0 b 600 78 471 0 543 29 l 600 0 l 731 0 l 731 696 z m 389 126 b 176 346 272 126 176 225 b 389 563 176 464 272 563 b 600 374 496 563 585 481 l 600 315 b 389 126 585 208 496 126 z m 265 946 b 361 906 304 946 336 932 l 369 899 l 379 889 b 515 842 418 860 467 842 b 674 911 576 842 629 865 l 678 915 l 611 981 l 608 976 b 515 935 582 949 551 935 b 421 976 478 935 447 949 l 411 986 l 403 992 b 265 1039 363 1024 317 1039 b 108 971 206 1039 151 1015 l 104 967 l 169 901 l 174 906 b 265 946 197 932 232 946 z "},"â":{"ha":783,"x_min":0,"x_max":0,"o":"m 600 696 l 600 611 b 389 689 543 660 471 689 b 56 346 206 689 56 535 b 389 0 56 153 206 0 b 600 78 471 0 543 29 l 600 0 l 731 0 l 731 696 z m 389 126 b 176 346 272 126 176 225 b 389 563 176 464 272 563 b 600 374 496 563 585 481 l 600 315 b 389 126 585 208 496 126 z m 624 949 l 393 1056 l 390 1054 l 390 1056 l 160 949 l 210 835 l 390 919 l 571 835 z "},"à":{"ha":783,"x_min":0,"x_max":0,"o":"m 600 696 l 600 611 b 389 689 543 660 471 689 b 56 346 206 689 56 535 b 389 0 56 153 206 0 b 600 78 471 0 543 29 l 600 0 l 731 0 l 731 696 z m 389 126 b 176 346 272 126 176 225 b 389 563 176 464 272 563 b 600 374 496 563 585 481 l 600 315 b 389 126 585 208 496 126 z m 533 904 l 300 1010 l 249 897 l 479 789 z "},"ÿ":{"ha":747,"x_min":0,"x_max":0,"o":"m 440 144 l 672 685 l 540 685 l 371 301 l 201 685 l 69 685 l 301 143 l 90 -350 l 229 -350 l 371 -18 l 382 8 z m 299 983 b 228 1056 299 1022 265 1056 b 156 983 185 1056 156 1022 b 228 913 156 943 185 913 b 299 983 265 913 299 943 z m 590 983 b 519 1056 590 1022 560 1056 b 447 983 481 1056 447 1022 b 519 913 447 943 481 913 b 590 983 560 913 590 943 z "},"ž":{"ha":607,"x_min":0,"x_max":0,"o":"m 574 692 l 247 122 l 561 122 l 561 0 l 32 0 l 153 210 l 353 567 l 43 567 l 43 692 z m 493 1044 l 313 960 l 132 1044 l 82 931 l 313 824 l 313 825 l 315 824 l 546 931 z "},"Š":{"ha":764,"x_min":0,"x_max":0,"o":"m 399 3 l 361 3 b 69 142 240 3 129 60 l 69 144 l 125 239 b 363 121 168 176 251 128 l 399 121 b 574 288 494 121 574 192 b 399 438 574 383 499 422 b 333 447 378 443 360 443 b 72 700 196 474 72 554 b 333 968 72 846 190 968 l 354 968 b 604 861 450 968 553 926 l 542 746 b 354 843 488 806 436 839 l 333 843 b 199 700 260 843 199 776 b 333 575 199 626 250 586 b 401 568 368 571 392 569 b 692 288 567 546 692 451 b 399 3 692 125 560 7 z m 547 1333 l 367 1249 l 186 1333 l 136 1219 l 367 1113 l 367 1114 l 369 1113 l 600 1219 z "},"Ž":{"ha":844,"x_min":0,"x_max":0,"o":"m 299 125 l 776 125 l 776 -1 l 58 -1 l 536 843 l 58 843 l 58 969 l 776 969 z m 617 1333 l 436 1249 l 256 1333 l 206 1219 l 436 1113 l 436 1114 l 439 1113 l 669 1219 z "},"š":{"ha":551,"x_min":0,"x_max":0,"o":"m 296 422 b 508 213 425 407 508 325 b 292 1 508 96 414 1 l 264 1 b 53 104 179 1 96 42 l 46 113 l 104 213 l 119 189 b 289 117 151 139 217 118 l 292 117 b 392 213 349 117 392 158 b 289 300 392 261 363 289 b 51 494 181 304 51 365 b 247 697 51 606 140 697 l 261 697 b 446 615 332 697 407 664 l 454 606 l 392 494 l 375 514 b 261 574 342 553 304 572 b 172 494 215 574 172 549 b 296 422 172 467 185 426 z m 450 1050 l 269 965 l 89 1050 l 39 936 l 269 829 l 269 831 l 272 829 l 503 936 z "},"ñ":{"ha":751,"x_min":0,"x_max":0,"o":"m 706 371 b 379 694 690 549 553 694 b 189 628 308 694 243 668 l 189 694 l 50 694 l 50 0 l 189 0 l 189 425 b 379 564 221 508 290 564 b 579 406 474 564 553 499 l 579 56 l 579 1 l 706 1 z m 250 946 b 346 906 289 946 321 932 l 354 899 l 364 889 b 500 842 403 860 451 842 b 658 911 561 842 614 865 l 663 915 l 596 981 l 593 976 b 500 935 567 949 536 935 b 406 976 463 935 432 949 l 396 986 l 388 992 b 250 1039 347 1024 301 1039 b 93 971 190 1039 136 1015 l 89 967 l 154 901 l 158 906 b 250 946 182 932 217 946 z "},"ç":{"ha":643,"x_min":0,"x_max":0,"o":"m 529 169 b 389 119 489 138 440 119 b 171 342 268 119 171 219 b 389 560 171 460 268 560 b 528 513 440 560 486 544 l 546 496 l 603 618 l 589 628 b 389 692 529 668 463 692 b 39 342 196 692 39 533 b 336 -6 39 169 167 17 l 324 -58 l 319 -58 l 354 -128 l 376 -107 b 401 -100 382 -103 390 -100 b 438 -136 422 -100 438 -115 b 401 -175 438 -158 422 -175 b 376 -165 390 -175 386 -171 l 354 -147 l 319 -215 l 338 -228 b 401 -246 356 -240 379 -246 b 511 -136 463 -246 511 -199 b 404 -26 511 -76 465 -31 l 408 -11 b 592 53 474 -6 538 15 l 603 61 l 546 185 z "},"‘":{"ha":314,"x_min":0,"x_max":0,"o":"m 175 764 l 254 810 l 128 1049 l 49 1003 z "},"´":{"ha":390,"x_min":0,"x_max":0,"o":"m 100 789 l 331 897 l 279 1010 l 46 904 z "},"á":{"ha":783,"x_min":0,"x_max":0,"o":"m 600 696 l 600 611 b 389 689 543 660 471 689 b 56 346 206 689 56 535 b 389 0 56 153 206 0 b 600 78 471 0 543 29 l 600 0 l 731 0 l 731 696 z m 389 126 b 176 346 272 126 176 225 b 389 563 176 464 272 563 b 600 374 496 563 585 481 l 600 315 b 389 126 585 208 496 126 z m 303 789 l 533 897 l 482 1010 l 249 904 z "},"é":{"ha":772,"x_min":0,"x_max":0,"o":"m 381 696 b 42 346 196 696 42 540 b 381 -3 42 151 196 -3 b 669 160 503 -3 610 60 l 497 160 b 381 124 465 136 426 124 b 175 285 283 124 200 190 l 589 285 l 703 285 l 717 285 b 722 346 721 303 722 322 b 381 696 722 540 569 696 z m 381 569 b 589 408 479 569 564 500 l 175 408 b 381 569 201 501 282 569 z m 297 789 l 528 897 l 476 1010 l 243 904 z "},"í":{"ha":206,"x_min":0,"x_max":0,"o":"m 179 694 l 51 694 l 51 1 l 179 1 z m 49 901 b 118 971 49 939 79 971 b 188 901 156 971 188 939 b 118 832 188 863 156 832 b 49 901 79 832 49 863 z m 17 789 l 247 897 l 196 1010 l -37 904 z "},"ó":{"ha":757,"x_min":0,"x_max":0,"o":"m 379 693 b 42 347 193 693 42 539 b 379 1 42 154 193 1 b 715 347 564 1 715 154 b 379 693 715 539 564 693 z m 379 128 b 164 347 260 128 164 226 b 379 567 164 468 260 567 b 593 347 497 567 593 468 b 379 128 593 226 497 128 z m 290 789 l 521 897 l 469 1010 l 236 904 z "},"ú":{"ha":765,"x_min":0,"x_max":0,"o":"m 699 693 l 583 693 l 582 693 l 582 290 b 382 132 554 197 476 132 b 182 290 288 132 208 197 l 182 424 l 182 640 l 182 693 l 56 693 l 56 390 b 54 358 54 379 54 368 b 56 325 54 347 54 336 b 103 168 60 268 76 214 b 382 1 163 68 265 1 b 582 75 458 1 525 29 l 582 1 l 706 1 l 706 693 z m 294 789 l 525 897 l 474 1010 l 240 904 z "},"Ú":{"ha":844,"x_min":0,"x_max":0,"o":"m 632 974 l 632 349 b 418 135 632 231 536 135 b 204 349 300 135 204 231 l 204 504 l 204 974 l 71 974 l 71 419 l 71 342 b 128 157 71 239 128 157 b 418 1 190 63 296 1 b 767 342 610 1 763 153 l 767 504 l 767 974 z m 333 1067 l 564 1175 l 513 1288 l 279 1182 z "},"Ó":{"ha":1056,"x_min":0,"x_max":0,"o":"m 519 974 b 58 489 264 974 58 756 b 519 1 58 221 264 1 b 993 489 789 1 993 221 b 519 974 993 756 789 974 z m 519 135 b 192 489 338 135 192 293 b 519 839 192 682 338 839 b 860 489 714 839 860 682 b 519 135 860 293 714 135 z m 439 1067 l 669 1175 l 618 1288 l 385 1182 z "},"É":{"ha":722,"x_min":0,"x_max":0,"o":"m 204 129 l 204 414 l 553 414 l 553 543 l 204 543 l 204 842 l 643 842 l 643 972 l 71 972 l 71 0 l 650 0 l 650 129 z m 272 1067 l 503 1175 l 451 1288 l 218 1182 z "},"Á":{"ha":967,"x_min":0,"x_max":0,"o":"m 751 0 l 903 0 l 482 972 l 63 0 l 210 0 l 278 151 l 688 151 z m 336 278 l 482 615 l 629 278 z m 394 1067 l 625 1175 l 574 1288 l 340 1182 z "},"(":{"ha":390,"x_min":0,"x_max":0,"o":"m 150 518 b 314 933 150 706 228 900 l 272 1039 b 51 518 156 979 51 772 b 269 1 51 269 157 57 l 324 103 b 150 518 235 129 150 331 z "},"€":{"ha":1088,"x_min":0,"x_max":0,"o":"m 100 467 l 100 349 l 219 349 b 708 3 290 147 482 3 b 1004 96 815 3 918 39 l 942 233 b 708 151 875 183 797 151 b 378 349 565 151 442 231 l 782 349 l 782 467 l 339 467 b 335 521 336 485 335 501 b 339 574 335 539 336 556 l 782 574 l 782 692 l 378 692 b 708 890 440 810 565 890 b 939 811 793 890 875 861 l 1004 944 b 708 1038 918 1004 815 1038 b 219 692 481 1038 289 893 l 100 692 l 100 574 l 192 574 b 190 521 190 556 190 539 b 193 467 190 503 190 485 z "}}}
